<svg width="51" height="51" viewBox="0 0 51 51" fill="none" xmlns="http://www.w3.org/2000/svg">
<path fill-rule="evenodd" clip-rule="evenodd" d="M10.625 19.125C10.625 10.9013 17.2763 4.25 25.5 4.25C33.7237 4.25 40.375 10.9013 40.375 19.125C40.375 30.2812 25.5 46.75 25.5 46.75C25.5 46.75 10.625 30.2812 10.625 19.125ZM20.1875 19.125C20.1875 16.191 22.566 13.8125 25.5 13.8125C27.398 13.8125 29.1518 14.8251 30.1008 16.4688C31.0497 18.1124 31.0497 20.1376 30.1008 21.7812C29.1518 23.4249 27.398 24.4375 25.5 24.4375C22.566 24.4375 20.1875 22.059 20.1875 19.125Z" fill="#DA5C5C"/>
</svg>
